
<svg width="13px" height="22px" viewBox="0 0 13 22" version="1.1" xmlns="http://www.w3.org/2000/svg" xmlns:xlink="http://www.w3.org/1999/xlink">
  <g id="arrow-right-medium.icon" fill="#ffffff" fill-rule="nonzero">
      <path d="M1,3.2 C0.3,2.6 0.3,1.6 1,1 C1,1 1,1 1,1 C1.6,0.4 2.6,0.4 3.2,1 C3.2,1 3.2,1 3.2,1 L12,9.9 C12.6,10.5 12.6,11.5 12,12.1 C12,12.1 12,12.1 12,12.1 L3.2,21 C2.6,21.6 1.6,21.6 1,21 C0.4,20.4 0.4,19.4 1,18.8 C1,18.8 1,18.8 1,18.8 L8.2,11 L1,3.2 Z" id="Shape" transform="translate(6.462500, 11.000000) scale(-1, 1) translate(-6.462500, -11.000000) "></path>
  </g>
</svg>
